<?xml version="1.0" encoding="utf-8"?>
<!-- Generator: Adobe Illustrator 23.0.2, SVG Export Plug-In . SVG Version: 6.00 Build 0)  -->
<svg version="1.1" xmlns="http://www.w3.org/2000/svg" xmlns:xlink="http://www.w3.org/1999/xlink" x="0px" y="0px"
	 viewBox="0 0 3000 3000" style="enable-background:new 0 0 3000 3000;" xml:space="preserve">
<style type="text/css">
	.st0{fill:#FFFFFF;}
</style>
<g id="Layer_1">
</g>
<g id="Layer_2">
	<g>
		<g>
			<path class="st0" d="M1612.5,2229.8c-12.8,0-25.4-3.9-36.2-11.6l-592-422.8H651.6c-34.4,0-62.3-27.9-62.3-62.3v-466.1
				c0-34.4,27.9-62.3,62.3-62.3h332.7l592-422.8c19-13.6,44-15.4,64.7-4.7c20.7,10.7,33.8,32.1,33.8,55.4v1335
				c0,23.3-13,44.7-33.8,55.4C1632,2227.5,1622.2,2229.8,1612.5,2229.8z M1001,1668.5c12.8,0,25.4,3.9,36.2,11.6l512.9,366.3V953.6
				l-512.9,366.3c-15.5,11.1-35,14.3-52.9,9.3H713.9v341.5h270.5C989.8,1669.2,995.4,1668.5,1001,1668.5z"/>
		</g>
		<g>
			<path class="st0" d="M2030.1,1922.5c-8.1,0-16.3-2-23.9-6.1c-24.1-13.2-33-43.5-19.8-67.7c46-83.9,74.5-176.5,84.8-275.2
				c15.5-148.4-13.8-297.2-82.4-419.1c-13.5-24-5-54.4,19-67.9c24-13.5,54.4-5,67.9,19c78.6,139.7,112.3,309.6,94.7,478.3
				c-11.7,112-44.1,217.2-96.5,312.8C2064.8,1913.1,2047.7,1922.5,2030.1,1922.5z"/>
		</g>
		<g>
			<path class="st0" d="M2198.3,2115.5c-9,0-18.1-2.4-26.4-7.6c-23.3-14.6-30.5-45.3-15.9-68.7c81.1-129.8,132.7-282.5,149.3-441.3
				c22.2-212.9-20.1-426.4-119-601.2c-13.6-24-5.1-54.4,18.8-67.9c24-13.6,54.4-5.1,67.9,18.8c109,192.7,155.7,427.4,131.4,660.7
				c-18.1,173.9-74.8,341.2-163.9,483.8C2231.1,2107.2,2214.9,2115.5,2198.3,2115.5z"/>
		</g>
	</g>
</g>
</svg>
