<?xml version="1.0" encoding="utf-8"?>
<!-- Generator: Adobe Illustrator 24.2.1, SVG Export Plug-In . SVG Version: 6.00 Build 0)  -->
<svg version="1.1" id="Layer_1" xmlns:svgjs="http://svgjs.com/svgjs"
	 xmlns="http://www.w3.org/2000/svg" xmlns:xlink="http://www.w3.org/1999/xlink" x="0px" y="0px" viewBox="0 0 48 48"
	 style="enable-background:new 0 0 48 48;" xml:space="preserve">
<style type="text/css">
	.st0{fill:#FFFFFF;}
</style>
<g transform="matrix(2,0,0,2,0,0)">
	<path class="st0" d="M19.5,12.1c0,0.7-0.3,1.3-0.8,1.7L7.6,23.6c-0.8,0.7-1.9,0.6-2.6-0.2c-0.6-0.8-0.6-1.9,0.2-2.5l9.8-8.6
		c0.1-0.1,0.1-0.2,0-0.4c0,0,0,0,0,0L5.2,3.3C4.4,2.6,4.3,1.5,4.9,0.7c0.7-0.8,1.8-0.9,2.6-0.2c0,0,0,0,0.1,0.1l11.1,9.8
		C19.2,10.8,19.5,11.4,19.5,12.1z"/>
</g>
</svg>
