<svg id="Layer_2" data-name="Layer 2" xmlns="http://www.w3.org/2000/svg" viewBox="0 0 129.85 138.9"><defs><style>.cls-1{fill:#df7100;}</style></defs><path class="cls-1" d="M700.42,501.43A15.17,15.17,0,0,0,679,501l-.07.07-21.68,22.59a1.45,1.45,0,0,1-2.06,0,1.49,1.49,0,0,1-.45-1V454.83a13.27,13.27,0,0,0-14.53-11.9h0c-4.77,0-14.68,2.62-14.59,11.66v68.14a1.46,1.46,0,0,1-1.47,1.46,1.5,1.5,0,0,1-1-.43L601.24,502a15.53,15.53,0,0,0-21.93,21.92L636,580.08a5.76,5.76,0,0,0,4.09,1.68h.06a5.78,5.78,0,0,0,4.11-1.75l56.58-57.11A15.22,15.22,0,0,0,700.42,501.43Z" transform="translate(-575.21 -442.87)"/></svg>