<svg xmlns="http://www.w3.org/2000/svg" version="1.1" xmlns:xlink="http://www.w3.org/1999/xlink" xmlns:svgjs="http://svgjs.com/svgjs" viewBox="0 0 24 24" height="24" width="24"><title>synchronize arrow 1 (From Streamline App : https://app.streamlineicons.com)</title><g transform="matrix(1,0,0,1,0,0)"><path d="M12.567,1.258c-4.4,0.175-8.255,3-9.749,7.142c-0.04,0.112-0.153,0.18-0.271,0.163L0.858,8.309 C0.669,8.285,0.483,8.367,0.373,8.522C0.265,8.68,0.257,8.886,0.352,9.052l2.679,4.7c0.137,0.24,0.443,0.323,0.682,0.186 c0.038-0.022,0.073-0.048,0.104-0.079l3.77-3.746c0.196-0.194,0.198-0.511,0.004-0.707C7.514,9.329,7.415,9.279,7.308,9.263 L5.593,9.007C5.456,8.987,5.362,8.86,5.382,8.724c0.003-0.023,0.01-0.045,0.019-0.067c1.843-4.172,6.719-6.061,10.892-4.218 s6.061,6.719,4.218,10.892c-1.276,2.889-4.088,4.797-7.244,4.916c-0.69,0.012-1.24,0.582-1.227,1.273 c0.012,0.69,0.582,1.24,1.273,1.227h0.047c5.935-0.182,10.598-5.141,10.416-11.076S18.634,1.073,12.7,1.255 c-0.044,0.001-0.088,0.003-0.133,0.005V1.258z" stroke="none" fill="#ffffff" stroke-width="0" stroke-linecap="round" stroke-linejoin="round"></path></g></svg>