<?xml version="1.0" encoding="utf-8"?>
<!-- Generator: Adobe Illustrator 24.2.1, SVG Export Plug-In . SVG Version: 6.00 Build 0)  -->
<svg version="1.1" id="Layer_1" xmlns:svgjs="http://svgjs.com/svgjs"
	 xmlns="http://www.w3.org/2000/svg" xmlns:xlink="http://www.w3.org/1999/xlink" x="0px" y="0px" viewBox="0 0 48 48"
	 style="enable-background:new 0 0 48 48;" xml:space="preserve">
<style type="text/css">
	.st0{fill:#FFFFFF;}
</style>
<g transform="matrix(2,0,0,2,0,0)">
	<path class="st0" d="M13.6,12c0,0.7-0.3,1.4-0.8,1.9l-9.5,9.5c-0.7,0.7-1.8,0.7-2.5,0c-0.7-0.7-0.7-1.8,0-2.5l8.7-8.7
		c0.1-0.1,0.1-0.3,0-0.4c0,0,0,0,0,0L0.7,3.1c-0.7-0.7-0.7-1.8,0-2.5c0.7-0.7,1.8-0.7,2.5,0l9.5,9.5C13.3,10.6,13.6,11.3,13.6,12z"
		/>
	<path class="st0" d="M23.7,12c0,0.7-0.3,1.4-0.8,1.9l-9.5,9.5c-0.7,0.7-1.8,0.7-2.5,0c-0.7-0.7-0.7-1.8,0-2.5l8.7-8.7
		c0.1-0.1,0.1-0.3,0-0.4c0,0,0,0,0,0l-8.7-8.7c-0.7-0.7-0.7-1.8,0-2.5c0.7-0.7,1.8-0.7,2.5,0l9.5,9.5C23.5,10.6,23.7,11.3,23.7,12z"
		/>
</g>
</svg>
