<svg xmlns="http://www.w3.org/2000/svg" version="1.1" xmlns:xlink="http://www.w3.org/1999/xlink" xmlns:svgjs="http://svgjs.com/svgjs" viewBox="0 0 140 140" width="140" height="140"><g transform="matrix(5.833333333333333,0,0,5.833333333333333,0,0)"><path d="M17.666,6.333a1.249,1.249,0,0,0-1.768,0l-3.722,3.722a.25.25,0,0,1-.353,0L8.1,6.333A1.25,1.25,0,1,0,6.333,8.1l3.722,3.722a.25.25,0,0,1,0,.354L6.333,15.9a1.251,1.251,0,0,0,0,1.768,1.269,1.269,0,0,0,1.768,0l3.722-3.722a.249.249,0,0,1,.353,0L15.9,17.666a1.272,1.272,0,0,0,1.768,0,1.251,1.251,0,0,0,0-1.768l-3.722-3.722a.25.25,0,0,1,0-.354L17.666,8.1A1.249,1.249,0,0,0,17.666,6.333Z" fill="#ffffff" stroke="none" stroke-linecap="round" stroke-linejoin="round" stroke-width="0"></path><path d="M12,0A12,12,0,1,0,24,12,12.013,12.013,0,0,0,12,0Zm0,22A10,10,0,1,1,22,12,10.011,10.011,0,0,1,12,22Z" fill="#ffffff" stroke="none" stroke-linecap="round" stroke-linejoin="round" stroke-width="0"></path></g></svg>