<svg id="Layer_1" data-name="Layer 1" xmlns="http://www.w3.org/2000/svg" xmlns:xlink="http://www.w3.org/1999/xlink" viewBox="0 0 47.94 48"><defs><style>.cls-1{fill:none;}.cls-2{clip-path:url(#clip-path);}.cls-3{fill:#fff;}</style><clipPath id="clip-path" transform="translate(-616.2 -487.83)"><rect class="cls-1" x="616.14" y="487.83" width="48" height="48"/></clipPath></defs><g id="RIGHT_ARROW_300_Clip_Group_" data-name="RIGHT ARROW 300%&lt;Clip Group&gt;"><g class="cls-2"><path class="cls-3" d="M664.14,511.76a4.8,4.8,0,0,0-1.62-3.6l-22.36-19.68a2.88,2.88,0,0,0-3.8,4.33L653.63,508a.5.5,0,0,1-.33.87H619.08a2.88,2.88,0,0,0,0,5.76H653.3a.5.5,0,0,1,.33.87l-17.28,15.2a2.88,2.88,0,0,0,3.62,4.48.93.93,0,0,0,.18-.16l22.36-19.67A4.78,4.78,0,0,0,664.14,511.76Z" transform="translate(-616.2 -487.83)"/></g></g></svg>