<svg id="Layer_1" data-name="Layer 1" xmlns="http://www.w3.org/2000/svg" viewBox="0 0 178.23 133.71"><defs><style>.cls-1{fill:#fff;}</style></defs><title>eye</title><path class="cls-1" d="M89.11,111.76c-24.36,0-44.7-20.35-44.7-44.7s20.35-44.7,44.7-44.7,44.7,20.35,44.7,44.7-20.35,44.7-44.7,44.7h0M89.11,0C51.38,0,19.79,35,.85,64.36c-1.48,2.28-.88,2.32.63,4.69C5,74.51,8.76,79.77,12.74,84.87c12.72,16.29,27.93,31.78,46.46,41.35,20.37,10.52,42.14,9.83,62.13-1.25,18.07-10,32.92-25.45,45.39-41.71,3.7-4.83,7.23-9.8,10.48-14.94,1.51-2.4,1.3-2.23-.28-4.64a195.5,195.5,0,0,0-31.48-37.25C130.06,12.37,110.64,0,89.11,0h0"/><path class="cls-1" d="M111.46,67.14A22.35,22.35,0,1,1,89.11,44.79a22.56,22.56,0,0,1,22.35,22.35Zm0,0"/></svg>